<svg aria-hidden="true" style="position: absolute; width: 0; height: 0; overflow: hidden;"
    version="1.1" xmlns="http://www.w3.org/2000/svg" xmlns:xlink="http://www.w3.org/1999/xlink">
    <defs>
        <symbol id="icon-pencil-01" viewBox="0 0 32 32">
            <path fill="none" stroke="" stroke-linejoin="round" stroke-linecap="round"
                stroke-miterlimit="4" stroke-width="2.6"
                d="M3.334 28.667l7.399-2.846c0.473-0.182 0.71-0.273 0.931-0.392 0.197-0.106 0.384-0.227 0.56-0.364 0.199-0.154 0.378-0.333 0.736-0.692l15.040-15.040c1.473-1.473 1.473-3.861 0-5.333s-3.86-1.473-5.333 0l-15.040 15.040c-0.359 0.359-0.538 0.538-0.692 0.736-0.137 0.176-0.259 0.364-0.364 0.56-0.119 0.221-0.21 0.458-0.392 0.931l-2.846 7.399zM3.334 28.667l2.744-7.135c0.196-0.511 0.295-0.766 0.463-0.883 0.147-0.102 0.329-0.141 0.505-0.107 0.201 0.038 0.395 0.232 0.782 0.619l3.012 3.012c0.387 0.387 0.58 0.58 0.619 0.782 0.034 0.176-0.005 0.358-0.107 0.505-0.117 0.168-0.372 0.267-0.883 0.463l-7.135 2.744z"></path>
        </symbol>
        <symbol id="icon-help-circle" viewBox="0 0 32 32">
            <path fill="none" stroke="" stroke-linejoin="round" stroke-linecap="round"
                stroke-miterlimit="4" stroke-width="2.88"
                d="M16 29.333c7.364 0 13.333-5.97 13.333-13.333s-5.97-13.333-13.333-13.333c-7.364 0-13.333 5.97-13.333 13.333s5.97 13.333 13.333 13.333z"></path>
            <path fill="none" stroke="" stroke-linejoin="round" stroke-linecap="round"
                stroke-miterlimit="4" stroke-width="2.88"
                d="M12.12 12c0.313-0.891 0.932-1.643 1.747-2.121s1.772-0.654 2.703-0.494c0.931 0.16 1.776 0.644 2.384 1.366s0.941 1.637 0.94 2.582c0 2.667-4 4-4 4"></path>
            <path fill="none" stroke="" stroke-linejoin="round" stroke-linecap="round"
                stroke-miterlimit="4" stroke-width="2.88" d="M16 22.667h0.020"></path>
        </symbol>
        <symbol id="icon-trash-04" viewBox="0 0 32 32">
            <path fill="none" stroke="" stroke-linejoin="round" stroke-linecap="round"
                stroke-miterlimit="4" stroke-width="2.6" d="M12 4h8"></path>
            <path fill="none" stroke="" stroke-linejoin="round" stroke-linecap="round"
                stroke-miterlimit="4" stroke-width="2.6" d="M4 8h24"></path>
            <path fill="none" stroke="" stroke-linejoin="round" stroke-linecap="round"
                stroke-miterlimit="4" stroke-width="2.6"
                d="M6.666 8l0.801 12.018c0.149 2.231 0.223 3.347 0.588 4.243 0.662 1.627 2.004 2.883 3.672 3.435 0.919 0.304 2.037 0.304 4.273 0.304v0c2.236 0 3.354 0 4.273-0.304 1.668-0.552 3.010-1.808 3.672-3.435 0.365-0.896 0.439-2.012 0.588-4.243l0.801-12.018"></path>
        </symbol>
        <symbol id="icon-plus" viewBox="0 0 32 32">
            <path stroke-linejoin="round" stroke-linecap="round" stroke-miterlimit="4"
                stroke-width="2.2857" d="M16 6.667v18.667"></path>
            <path stroke-linejoin="round" stroke-linecap="round" stroke-miterlimit="4"
                stroke-width="2.2857" d="M6.667 16h18.667"></path>
        </symbol>
        <symbol id="icon-plus+" viewBox="0 0 32 32">
            <path stroke-linejoin="round" stroke-linecap="round" stroke-miterlimit="4"
                stroke-width="3.2" d="M16 6.667v18.667"></path>
            <path stroke-linejoin="round" stroke-linecap="round" stroke-miterlimit="4"
                stroke-width="3.2" d="M6.666 16h18.667"></path>
        </symbol>
        <symbol id="icon-login" viewBox="0 0 32 32">
            <path fill="none" stroke="" style="stroke: var(--color1)" stroke-linejoin="round"
                stroke-linecap="round" stroke-miterlimit="4" stroke-width="1.5"
                d="M11.866 10.080c0.413-4.8 2.88-6.76 8.28-6.76h0.173c5.96 0 8.347 2.387 8.347 8.347v8.693c0 5.96-2.387 8.347-8.347 8.347h-0.173c-5.36 0-7.827-1.933-8.267-6.653"></path>
            <path fill="none" stroke="" style="stroke: var(--color1)" stroke-linejoin="round"
                stroke-linecap="round" stroke-miterlimit="4" stroke-width="1.5" d="M2.667 16h17.173"></path>
            <path fill="none" stroke="" style="stroke: var(--color1)" stroke-linejoin="round"
                stroke-linecap="round" stroke-miterlimit="4" stroke-width="1.5"
                d="M16.866 11.533l4.467 4.467-4.467 4.467"></path>
        </symbol>
        <symbol id="icon-Vector-1" viewBox="0 0 24 32">
            <path 
                d="M6.663 30.054c0.489-2.543 0.905-5.22 1.494-7.897 0.29-1.401-0.063-1.999-1.63-1.892s-3.313 0.053-4.979 0c-1.666-0.054-1.965-0.892-1.005-2.088 4.726-5.836 9.506-11.6 14.268-17.347 0.534-0.651 1.15-1.115 2.028-0.625s0.697 1.098 0.552 1.829c-0.525 2.677-0.96 5.354-1.539 7.978-0.299 1.356 0.091 1.838 1.503 1.785 1.417-0.071 2.837-0.071 4.255 0 0.806 0 1.865-0.419 2.281 0.678s-0.462 1.562-0.905 2.213c-1.811 2.231-3.645 4.459-5.504 6.684-2.722 3.248-5.423 6.484-8.102 9.709-0.525 0.633-1.114 1.142-2.010 0.821s-0.706-1.080-0.706-1.847z"></path>
        </symbol>
        <symbol id="icon-radio-button" viewBox="0 0 32 32">
            <path fill="#8fa1d0" style="fill: var(--color1, #8fa1d0)"
                d="M25.143 16c0 5.049-4.093 9.143-9.143 9.143s-9.143-4.093-9.143-9.143c0-5.049 4.093-9.143 9.143-9.143s9.143 4.093 9.143 9.143z"></path>
            <path fill="none" stroke="#8fa1d0" style="stroke: var(--color1, #8fa1d0)"
                stroke-linejoin="miter" stroke-linecap="butt" stroke-miterlimit="4"
                stroke-width="2.2857"
                d="M30.857 16c0 8.205-6.652 14.857-14.857 14.857s-14.857-6.652-14.857-14.857c0-8.205 6.652-14.857 14.857-14.857s14.857 6.652 14.857 14.857z"></path>
        </symbol>
        <symbol id="icon-eye" viewBox="0 0 32 32">
            <path stroke-linejoin="round" stroke-linecap="round" stroke-miterlimit="4"
                stroke-width="2.3111"
                d="M1.333 16c0 0 5.333-10.667 14.667-10.667s14.667 10.667 14.667 10.667c0 0-5.333 10.667-14.667 10.667s-14.667-10.667-14.667-10.667z"></path>
            <path stroke-linejoin="round" stroke-linecap="round" stroke-miterlimit="4"
                stroke-width="2.3111"
                d="M16 20c2.209 0 4-1.791 4-4s-1.791-4-4-4c-2.209 0-4 1.791-4 4s1.791 4 4 4z"></path>
        </symbol>
        <symbol id="icon-Vector-2" viewBox="0 0 32 32">
            <path stroke-linejoin="round" stroke-linecap="round" stroke-miterlimit="4"
                stroke-width="3"
                d="M29.333 4h-26.667l10.667 12.613v8.72l5.333 2.667v-11.387l10.667-12.613z"></path>
        </symbol>
        <symbol id="icon-x-close" viewBox="0 0 32 32">
            <path stroke-linejoin="round"
                stroke-linecap="round" stroke-miterlimit="4" stroke-width="2.6667" d="M24 8l-16 16"></path>
            <path stroke-linejoin="round"
                stroke-linecap="round" stroke-miterlimit="4" stroke-width="2.6667" d="M8 8l16 16"></path>
        </symbol>
        <symbol id="icon-arrow-circle-broken-right" viewBox="0 0 32 32">
            <path stroke-linejoin="round" stroke-linecap="round" stroke-miterlimit="4"
                stroke-width="2.6"
                d="M4.451 9.333c2.305-3.985 6.614-6.667 11.55-6.667 7.364 0 13.333 5.97 13.333 13.333s-5.969 13.333-13.333 13.333c-4.935 0-9.244-2.681-11.55-6.667"></path>
            <path stroke-linejoin="round" stroke-linecap="round" stroke-miterlimit="4"
                stroke-width="2.6" d="M16 21.333l5.333-5.333-5.333-5.333"></path>
            <path stroke-linejoin="round" stroke-linecap="round" stroke-miterlimit="4"
                stroke-width="2.6" d="M2.666 16h18.667"></path>
        </symbol>
        <symbol id="icon-menu-01" viewBox="0 0 32 32">
            <path stroke-linejoin="round" stroke-linecap="round" stroke-miterlimit="4"
                stroke-width="2.5" d="M4 16h24"></path>
            <path stroke-linejoin="round" stroke-linecap="round" stroke-miterlimit="4"
                stroke-width="2.5" d="M4 8h24"></path>
            <path stroke-linejoin="round" stroke-linecap="round" stroke-miterlimit="4"
                stroke-width="2.5" d="M4 24h24"></path>
        </symbol>
        <symbol id="icon-board-1" viewBox="0 0 32 32">
            <path stroke-width="2.6667"
                d="M4.396 6.978c0.301-1.281 1.301-2.282 2.582-2.582v0c1.11-0.26 2.266-0.26 3.377 0v0c1.281 0.301 2.282 1.301 2.582 2.582v0c0.26 1.11 0.26 2.266 0 3.377v0c-0.301 1.281-1.301 2.282-2.582 2.582v0c-1.11 0.26-2.266 0.26-3.377 0v0c-1.281-0.301-2.282-1.301-2.582-2.582v0c-0.26-1.11-0.26-2.266 0-3.377v0z"></path>
            <path stroke-width="2.6667"
                d="M4.396 21.645c0.301-1.281 1.301-2.282 2.582-2.582v0c1.11-0.261 2.266-0.261 3.377 0v0c1.281 0.3 2.282 1.301 2.582 2.582v0c0.26 1.111 0.26 2.266 0 3.377v0c-0.301 1.281-1.301 2.282-2.582 2.582v0c-1.11 0.261-2.266 0.261-3.377 0v0c-1.281-0.3-2.282-1.301-2.582-2.582v0c-0.26-1.111-0.26-2.266 0-3.377v0z"></path>
            <path stroke-width="2.6667"
                d="M19.063 6.978c0.3-1.281 1.301-2.282 2.582-2.582v0c1.111-0.26 2.266-0.26 3.377 0v0c1.281 0.301 2.282 1.301 2.582 2.582v0c0.261 1.11 0.261 2.266 0 3.377v0c-0.3 1.281-1.301 2.282-2.582 2.582v0c-1.111 0.26-2.266 0.26-3.377 0v0c-1.281-0.301-2.282-1.301-2.582-2.582v0c-0.261-1.11-0.261-2.266 0-3.377v0z"></path>
            <path stroke-width="2.6667"
                d="M19.063 21.645c0.3-1.281 1.301-2.282 2.582-2.582v0c1.111-0.261 2.266-0.261 3.377 0v0c1.281 0.3 2.282 1.301 2.582 2.582v0c0.261 1.111 0.261 2.266 0 3.377v0c-0.3 1.281-1.301 2.282-2.582 2.582v0c-1.111 0.261-2.266 0.261-3.377 0v0c-1.281-0.3-2.282-1.301-2.582-2.582v0c-0.261-1.111-0.261-2.266 0-3.377v0z"></path>
        </symbol>
        <symbol id="icon-board-2" viewBox="0 0 18 18">
            <path stroke-linejoin="miter" stroke-linecap="butt" stroke-miterlimit="4"
                stroke-width="1.5"
                d="M9 1.5L10.509 5.42331C10.7205 5.97324 10.8262 6.2482 10.9907 6.47948C11.1364 6.68446 11.3155 6.86356 11.5205 7.00931C11.7518 7.17377 12.0268 7.27952 12.5767 7.49103L16.5 9L12.5767 10.509C12.0268 10.7205 11.7518 10.8262 11.5205 10.9907C11.3155 11.1364 11.1364 11.3155 10.9907 11.5205C10.8262 11.7518 10.7205 12.0268 10.509 12.5767L9 16.5L7.49103 12.5767C7.27952 12.0268 7.17377 11.7518 7.00931 11.5205C6.86356 11.3155 6.68446 11.1364 6.47948 10.9907C6.2482 10.8262 5.97324 10.7205 5.42331 10.509L1.5 9L5.42331 7.49103C5.97323 7.27952 6.2482 7.17377 6.47948 7.00931C6.68446 6.86356 6.86356 6.68446 7.00931 6.47948C7.17377 6.2482 7.27952 5.97324 7.49103 5.42331L9 1.5Z"></path>
        </symbol>
        <symbol id="icon-board-3" viewBox="0 0 18 18">
            <path stroke-linejoin="miter" stroke-linecap="butt" stroke-miterlimit="4"
                stroke-width="1.5"
                d="M2.50519 12.7498C1.56607 11.1224 2.04355 9.04833 3.59847 7.99505L3.60013 7.99338C4.84923 7.14926 6.49331 7.17759 7.71325 8.06421L10.2873 9.93578C11.5064 10.8224 13.1505 10.8507 14.4004 10.0066L14.4021 10.0049C15.9578 8.95166 16.4361 6.87594 15.4953 5.25019M12.7515 15.4945C11.1241 16.4336 9.04999 15.9561 7.99671 14.4012L7.99505 14.3995C7.15093 13.1504 7.17926 11.5063 8.06588 10.2864L9.93744 7.71238C10.8241 6.49327 10.8524 4.84919 10.0083 3.59926L10.0049 3.59759C8.95166 2.04351 6.87594 1.56437 5.25019 2.50515M14.3029 3.69676C17.2319 6.62577 17.2319 11.3739 14.3029 14.3029C11.3739 17.2319 6.62577 17.2319 3.69676 14.3029C0.767747 11.3739 0.767747 6.62577 3.69676 3.69676C6.62577 0.767747 11.3739 0.767747 14.3029 3.69676Z"></path>
        </symbol>
        <symbol id="icon-board-4" viewBox="0 0 32 32">
            <path stroke-linejoin="round" stroke-linecap="round" stroke-miterlimit="4"
                stroke-width="2.6667"
                d="M16 2.667l4.8 4.8c3.2-8.4 12.133 0.533 3.733 3.733l4.8 4.8-4.8 4.8c-3.2-8.4-12.133 0.533-3.733 3.733l-4.8 4.8-4.8-4.8c-3.2 8.4-12.133-0.533-3.733-3.733l-4.8-4.8 4.8-4.8c3.2 8.4 12.133-0.533 3.733-3.733l4.8-4.8z"></path>
        </symbol>
        <symbol id="icon-board-5" viewBox="0 0 32 32">
            <path stroke-linejoin="miter" stroke-linecap="butt" stroke-miterlimit="4"
                stroke-width="2.6667"
                d="M27.333 9.704l-11.333 6.296M16 16l-11.333-6.296M16 16l0 12.667M28 21.411v-10.823c0-0.457 0-0.685-0.067-0.889-0.060-0.18-0.157-0.346-0.285-0.485-0.145-0.158-0.345-0.269-0.744-0.491l-9.867-5.481c-0.378-0.21-0.567-0.315-0.767-0.356-0.177-0.036-0.36-0.036-0.537 0-0.2 0.041-0.389 0.146-0.767 0.356l-9.867 5.481c-0.399 0.222-0.599 0.333-0.744 0.491-0.129 0.14-0.226 0.305-0.286 0.485-0.067 0.204-0.067 0.432-0.067 0.889v10.823c0 0.457 0 0.685 0.067 0.889 0.060 0.18 0.157 0.346 0.286 0.485 0.145 0.158 0.345 0.269 0.744 0.491l9.867 5.481c0.378 0.21 0.567 0.315 0.767 0.356 0.177 0.036 0.36 0.036 0.537 0 0.2-0.041 0.389-0.146 0.767-0.356l9.867-5.481c0.399-0.222 0.599-0.333 0.744-0.491 0.129-0.14 0.226-0.305 0.285-0.485 0.067-0.204 0.067-0.432 0.067-0.889z"></path>
        </symbol>
        <symbol id="icon-board-6" viewBox="0 0 32 32">
            <path stroke-linejoin="round" stroke-linecap="round" stroke-miterlimit="4"
                stroke-width="2.6667"
                d="M19.887 2.667h-7.674c-0.239 0-0.359 0-0.465 0.036-0.093 0.032-0.178 0.085-0.249 0.154-0.080 0.078-0.133 0.185-0.24 0.399l-5.6 11.2c-0.256 0.511-0.383 0.767-0.353 0.974 0.027 0.181 0.127 0.344 0.277 0.449 0.172 0.12 0.458 0.12 1.029 0.12h8.274l-4 13.333 16.258-16.86c0.548-0.569 0.823-0.853 0.839-1.097 0.014-0.211-0.073-0.417-0.235-0.553-0.186-0.157-0.581-0.157-1.372-0.157h-9.49l3-8z"></path>
        </symbol>
        <symbol id="icon-board-7" viewBox="0 0 32 32">
            <path stroke-linejoin="round" stroke-linecap="round" stroke-miterlimit="4"
                stroke-width="2.6667"
                d="M16 27.296c1.415 1.267 3.284 2.037 5.333 2.037 4.418 0 8-3.582 8-8 0-3.689-2.497-6.795-5.893-7.72M8.56 13.614c-3.396 0.925-5.894 4.031-5.894 7.72 0 4.418 3.582 8 8 8s8-3.582 8-8c0-1.041-0.199-2.035-0.56-2.947M24 10.667c0 4.418-3.582 8-8 8s-8-3.582-8-8 3.582-8 8-8c4.418 0 8 3.582 8 8z"></path>
        </symbol>
        <symbol id="icon-board-8" viewBox="0 0 18 18">
            <path stroke-linejoin="round" stroke-linecap="round" stroke-miterlimit="4"
                stroke-width="1.5"
                d="M8.41723 1.82376C8.62993 1.7056 8.73628 1.64651 8.84891 1.62335C8.94859 1.60285 9.05141 1.60285 9.15109 1.62335C9.26372 1.64651 9.37007 1.7056 9.58277 1.82376L15.1328 4.9071C15.3574 5.0319 15.4697 5.0943 15.5515 5.18305C15.6239 5.26157 15.6786 5.35463 15.7121 5.45601C15.75 5.57061 15.75 5.6991 15.75 5.95609V12.0439C15.75 12.3009 15.75 12.4294 15.7121 12.544C15.6786 12.6454 15.6239 12.7384 15.5515 12.817C15.4697 12.9057 15.3574 12.9681 15.1328 13.0929L9.58277 16.1762C9.37007 16.2944 9.26372 16.3535 9.15109 16.3767C9.05141 16.3972 8.94859 16.3972 8.84891 16.3767C8.73628 16.3535 8.62993 16.2944 8.41723 16.1762L2.86723 13.0929C2.64259 12.9681 2.53026 12.9057 2.44847 12.817C2.37612 12.7384 2.32136 12.6454 2.28786 12.544C2.25 12.4294 2.25 12.3009 2.25 12.0439V5.95609C2.25 5.6991 2.25 5.57061 2.28786 5.45601C2.32136 5.35463 2.37612 5.26157 2.44847 5.18305C2.53026 5.0943 2.64259 5.0319 2.86723 4.9071L8.41723 1.82376Z"></path>
        </symbol>
        <symbol id="icon-Icon-1" viewBox="0 0 32 32">
            <path style="stroke: var(--iconBoardColor)" stroke-linejoin="round"
                stroke-linecap="round" stroke-miterlimit="4" stroke-width="2.6667"
                d="M4.454 22.666c-1.67-2.893-0.821-6.58 1.944-8.453l0.003-0.003c2.221-1.501 5.143-1.45 7.312 0.126l4.576 3.327c2.167 1.576 5.090 1.627 7.312 0.126l0.003-0.003c2.766-1.872 3.616-5.563 1.943-8.453M22.669 27.546c-2.893 1.669-6.58 0.821-8.453-1.944l-0.003-0.003c-1.501-2.221-1.45-5.143 0.126-7.312l3.327-4.576c1.576-2.167 1.627-5.090 0.126-7.312l-0.006-0.003c-1.872-2.763-5.563-3.615-8.453-1.942M25.427 6.572c5.207 5.207 5.207 13.648 0 18.855s-13.648 5.207-18.855 0c-5.207-5.207-5.207-13.648 0-18.855s13.648-5.207 18.855 0z"></path>
        </symbol>
        <symbol id="icon-iconLogo" viewBox="0 0 32 32">
            <path fill="#161616" style="fill: var(--color1, #161616)"
                d="M26.667 0h-21.333c-2.946 0-5.333 2.388-5.333 5.333v21.333c0 2.946 2.388 5.333 5.333 5.333h21.333c2.946 0 5.333-2.388 5.333-5.333v-21.333c0-2.946-2.388-5.333-5.333-5.333z"></path>
            <path fill="#fff" style="fill: var(--color2, #fff)"
                d="M13.331 23.027c0.244-1.272 0.453-2.61 0.747-3.949 0.145-0.701-0.032-0.999-0.815-0.946s-1.657 0.027-2.49 0c-0.833-0.027-0.982-0.446-0.502-1.044 2.363-2.918 4.753-5.8 7.134-8.674 0.267-0.326 0.575-0.558 1.014-0.312s0.349 0.549 0.276 0.915c-0.263 1.339-0.48 2.677-0.77 3.989-0.149 0.678 0.045 0.919 0.751 0.892 0.709-0.036 1.419-0.036 2.127 0 0.403 0 0.932-0.21 1.141 0.339s-0.231 0.781-0.453 1.107c-0.905 1.115-1.823 2.229-2.752 3.342-1.361 1.624-2.711 3.242-4.051 4.854-0.263 0.317-0.557 0.571-1.005 0.41s-0.353-0.54-0.353-0.924z"></path>
        </symbol>
        <symbol id="icon-user_default" viewBox="0 0 32 32">
            <path
                d="M3.765 0h24.471c2.079 0 3.765 1.686 3.765 3.765v24.471c0 2.079-1.686 3.765-3.765 3.765h-24.471c-2.079 0-3.765-1.686-3.765-3.765v-24.471c0-2.079 1.686-3.765 3.765-3.765z"></path>
            <path fill="currentColor"
                d="M21.49 14.745c0 2.946-2.388 5.333-5.333 5.333s-5.333-2.388-5.333-5.333c0-2.946 2.388-5.333 5.333-5.333s5.333 2.388 5.333 5.333z"></path>
            <path fill="currentColor"
                d="M29.060 32.853c0-1.723-0.339-3.429-0.999-5.020s-1.626-3.038-2.844-4.256c-1.218-1.218-2.664-2.184-4.256-2.844s-3.297-0.999-5.020-0.999c-1.723 0-3.429 0.339-5.020 0.999s-3.038 1.626-4.256 2.844c-1.218 1.218-2.184 2.664-2.844 4.256s-0.999 3.297-0.999 5.020h26.237z"></path>
        </symbol>
        <symbol id="icon-bell" viewBox="0 0 32 32">
            <path fill="none" stroke-linejoin="round" stroke-linecap="round" stroke-miterlimit="4"
                stroke-width="3"
                d="M12.472 28c0.94 0.83 2.175 1.333 3.528 1.333s2.588-0.504 3.528-1.333M24 10.667c0-2.122-0.843-4.157-2.343-5.657s-3.535-2.343-5.657-2.343-4.157 0.843-5.657 2.343c-1.5 1.5-2.343 3.535-2.343 5.657 0 4.12-1.039 6.941-2.2 8.807-0.979 1.574-1.469 2.361-1.451 2.58 0.020 0.243 0.071 0.336 0.267 0.481 0.177 0.131 0.974 0.131 2.569 0.131h17.63c1.595 0 2.392 0 2.569-0.131 0.196-0.145 0.247-0.238 0.267-0.481 0.018-0.22-0.472-1.006-1.451-2.58-1.161-1.866-2.2-4.687-2.2-8.807z"></path>
        </symbol>
        <symbol id="icon-image-default" viewBox="0 0 32 32">
            <path fill="none" stroke-linejoin="round" stroke-linecap="round" stroke-miterlimit="4"
                stroke-width="2"
                d="M25.333 28h1.347c1.295 0 1.942 0 2.299-0.27 0.311-0.235 0.503-0.595 0.526-0.984 0.027-0.447-0.332-0.985-1.051-2.063l-4.014-6.021c-0.594-0.89-0.89-1.335-1.264-1.49-0.327-0.136-0.694-0.136-1.021 0-0.374 0.155-0.671 0.6-1.264 1.49l-0.992 1.488M25.333 28l-10.246-14.8c-0.589-0.851-0.884-1.277-1.252-1.426-0.322-0.131-0.682-0.131-1.004 0-0.368 0.15-0.663 0.575-1.252 1.426l-7.928 11.452c-0.751 1.084-1.126 1.626-1.105 2.077 0.019 0.393 0.21 0.757 0.522 0.996 0.359 0.274 1.018 0.274 2.337 0.274h19.928zM28 8c0 2.209-1.791 4-4 4s-4-1.791-4-4c0-2.209 1.791-4 4-4s4 1.791 4 4z"></path>
        </symbol>
    </defs>
</svg>